<?xml version="1.0" encoding="UTF-8" standalone="no"?>
<svg
   xmlns:dc="http://purl.org/dc/elements/1.1/"
   xmlns:cc="http://creativecommons.org/ns#"
   xmlns:rdf="http://www.w3.org/1999/02/22-rdf-syntax-ns#"
   xmlns:svg="http://www.w3.org/2000/svg"
   xmlns="http://www.w3.org/2000/svg"
   xmlns:sodipodi="http://sodipodi.sourceforge.net/DTD/sodipodi-0.dtd"
   xmlns:inkscape="http://www.inkscape.org/namespaces/inkscape"
   height="512pt"
   viewBox="0 0 512 512"
   width="512pt"
   version="1.1"
   id="svg6"
   sodipodi:docname="fits-down.svg"
   inkscape:version="0.92.4 (5da689c313, 2019-01-14)">
  <metadata
     id="metadata12">
    <rdf:RDF>
      <cc:Work
         rdf:about="">
        <dc:format>image/svg+xml</dc:format>
        <dc:type
           rdf:resource="http://purl.org/dc/dcmitype/StillImage" />
        <dc:title></dc:title>
      </cc:Work>
    </rdf:RDF>
  </metadata>
  <defs
     id="defs10" />
  <sodipodi:namedview
     pagecolor="#ffffff"
     bordercolor="#666666"
     borderopacity="1"
     objecttolerance="10"
     gridtolerance="10"
     guidetolerance="10"
     inkscape:pageopacity="0"
     inkscape:pageshadow="2"
     inkscape:window-width="1848"
     inkscape:window-height="1016"
     id="namedview8"
     showgrid="false"
     inkscape:zoom="0.34570313"
     inkscape:cx="341.33333"
     inkscape:cy="341.33333"
     inkscape:window-x="72"
     inkscape:window-y="27"
     inkscape:window-maximized="1"
     inkscape:current-layer="svg6" />
  <path
     d="M 397.28813,0 H 112.54237 C 86.331186,0 65.084744,28.652344 65.084744,64 v 384 c 0,35.34766 21.246442,64 47.457626,64 h 284.74576 c 26.2112,0 47.45763,-28.65234 47.45763,-64 V 64 c 0,-35.347656 -21.24643,-64 -47.45763,-64 z m 0,0"
     id="path2"
     inkscape:connector-curvature="0"
     style="fill:#00ff00;stroke-width:0.86111873" />
  <path
     d="m 360.75304,433.47611 -85.33203,58.67915 c -8.33984,5.73763 -21.82422,5.73763 -30.16406,0 l -85.33203,-58.67915 c -6.10156,-4.19578 -7.9375,-10.50289 -4.63281,-15.99071 3.30859,-5.47171 11.09375,-9.05236 19.71484,-9.05236 h 64 V 305.74386 c 0,-8.09877 9.55469,-14.66912 21.33203,-14.66912 11.77735,0 21.33203,6.57035 21.33203,14.66912 v 102.68918 h 64 c 8.6211,0 16.40625,3.58065 19.71485,9.05236 3.30468,5.48782 1.46875,11.79493 -4.63282,15.99071 z m 0,0"
     id="path4"
     inkscape:connector-curvature="0"
     style="fill:#fafafa;stroke-width:0.82925075" />
  <text
     xml:space="preserve"
     style="font-style:normal;font-weight:normal;font-size:64px;line-height:1.25;font-family:sans-serif;letter-spacing:0px;word-spacing:0px;fill:#000000;fill-opacity:1;stroke:none;stroke-width:0.75"
     x="123.661"
     y="232.13559"
     id="text824"><tspan
       sodipodi:role="line"
       id="tspan822"
       x="123.661"
       y="232.13559"
       style="font-style:normal;font-variant:normal;font-weight:normal;font-stretch:normal;font-size:170px;font-family:'Open Sans Condensed';-inkscape-font-specification:'Open Sans Condensed, ';fill:#ffffff;stroke-width:0.75">FITS</tspan></text>
</svg>
